<svg xmlns="http://www.w3.org/2000/svg" width="207" height="207" viewBox="0 0 207 207"><g transform="translate(0.336)"><g transform="translate(-0.336)" fill="#404b5d" stroke="#707070" stroke-width="1"><circle cx="103.5" cy="103.5" r="103.5" stroke="none"/><circle cx="103.5" cy="103.5" r="103" fill="none"/></g><path d="M39.53.563C17.576.563.563,16.607.563,38.279a36.861,36.861,0,0,0,12.24,27.9c1.309,1.177,1.039,1.859,1.262,9.129a3.123,3.123,0,0,0,4.371,2.755c8.3-3.653,8.4-3.941,9.808-3.559,24.033,6.615,50.081-8.766,50.081-36.222C78.325,16.607,61.485.563,39.53.563Zm23.4,29.024L51.483,47.706a5.859,5.859,0,0,1-8.452,1.557l-9.106-6.815a2.352,2.352,0,0,0-2.822,0L18.816,51.766a1.848,1.848,0,0,1-2.682-2.457L27.579,31.191a5.857,5.857,0,0,1,8.452-1.557l9.1,6.814a2.352,2.352,0,0,0,2.822,0l12.293-9.31A1.843,1.843,0,0,1,62.928,29.587Z" transform="translate(63.368 63.774)" fill="#fff"/></g></svg>