<svg xmlns="http://www.w3.org/2000/svg" width="120" height="120" viewBox="0 0 120 120">
  <g id="Group_8" data-name="Group 8" transform="translate(-1304 -3271)">
    <g id="Ellipse_5" data-name="Ellipse 5" transform="translate(1304 3271)" fill="#404b5d" stroke="#f9b124" stroke-width="4">
      <circle cx="60" cy="60" r="60" stroke="none"/>
      <circle cx="60" cy="60" r="58" fill="none"/>
    </g>
    <path id="Icon_awesome-whatsapp" data-name="Icon awesome-whatsapp" d="M39.62,9.022A23.1,23.1,0,0,0,3.277,36.888L0,48.85l12.243-3.214a23.022,23.022,0,0,0,11.036,2.808h.01A23.314,23.314,0,0,0,46.6,25.352,23.183,23.183,0,0,0,39.62,9.022ZM23.29,44.554a19.159,19.159,0,0,1-9.778-2.673l-.7-.416-7.26,1.9,1.935-7.084-.458-.728A19.23,19.23,0,1,1,42.7,25.352a19.408,19.408,0,0,1-19.41,19.2ZM33.816,30.179c-.572-.291-3.412-1.685-3.942-1.872s-.915-.291-1.3.291-1.487,1.872-1.831,2.268-.676.437-1.248.146c-3.391-1.7-5.617-3.027-7.853-6.865-.593-1.019.593-.947,1.7-3.152a1.069,1.069,0,0,0-.052-1.009c-.146-.291-1.3-3.131-1.779-4.286-.468-1.123-.947-.967-1.3-.988-.333-.021-.718-.021-1.1-.021a2.137,2.137,0,0,0-1.539.718,6.484,6.484,0,0,0-2.018,4.816c0,2.84,2.07,5.586,2.351,5.971s4.067,6.21,9.861,8.717c3.661,1.581,5.1,1.716,6.928,1.446,1.113-.166,3.412-1.394,3.89-2.746a4.826,4.826,0,0,0,.333-2.746C34.773,30.605,34.388,30.46,33.816,30.179Z" transform="translate(1340.7 3306.149)" fill="#fff"/>
  </g>
</svg>
