<svg xmlns="http://www.w3.org/2000/svg" width="207" height="207" viewBox="0 0 207 207"><g transform="translate(0.368)"><g transform="translate(-0.368)" fill="#404b5d" stroke="#707070" stroke-width="1"><circle cx="103.5" cy="103.5" r="103.5" stroke="none"/><circle cx="103.5" cy="103.5" r="103" fill="none"/></g><path d="M68.157,13.9A39.737,39.737,0,0,0,5.637,61.836L0,82.414l21.061-5.529a39.6,39.6,0,0,0,18.985,4.831h.018c21.884,0,40.1-17.822,40.1-39.724A39.88,39.88,0,0,0,68.157,13.9ZM40.064,75.024a32.959,32.959,0,0,1-16.82-4.6l-1.2-.716L9.555,72.984,12.883,60.8,12.1,59.546A33.081,33.081,0,1,1,73.454,41.992c0,18.216-15.192,33.032-33.39,33.032ZM58.173,50.295c-.984-.5-5.869-2.9-6.782-3.221-.913-.34-1.575-.5-2.237.5S46.6,50.8,46,51.476c-.573.662-1.163.752-2.147.251-5.833-2.917-9.663-5.207-13.51-11.81-1.02-1.754,1.02-1.628,2.917-5.422a1.839,1.839,0,0,0-.089-1.736c-.251-.5-2.237-5.386-3.06-7.372-.805-1.933-1.628-1.664-2.237-1.7-.573-.036-1.235-.036-1.9-.036a3.677,3.677,0,0,0-2.648,1.235,11.154,11.154,0,0,0-3.471,8.285c0,4.885,3.561,9.609,4.044,10.271.5.662,7,10.683,16.963,14.995,6.3,2.72,8.768,2.952,11.917,2.487,1.915-.286,5.869-2.4,6.692-4.724s.823-4.312.573-4.724C59.819,51.028,59.157,50.778,58.173,50.295Z" transform="translate(63.016 62.086)" fill="#fff"/></g></svg>